<svg width="775" height="135" viewBox="0 0 775 135" fill="none" xmlns="http://www.w3.org/2000/svg">
<path d="M7.29038 30.032H57.4664V34.288H12.2184V66.32H52.9864V70.576H12.2184V110H7.29038V30.032Z" />
<path d="M102.464 98.576H102.24C101.568 100.293 100.597 101.936 99.328 103.504C98.0587 104.997 96.4907 106.341 94.624 107.536C92.832 108.731 90.7787 109.664 88.464 110.336C86.1493 111.008 83.6107 111.344 80.848 111.344C74.7253 111.344 69.984 110.037 66.624 107.424C63.264 104.736 61.584 100.629 61.584 95.104C61.584 91.744 62.256 89.0187 63.6 86.928C64.944 84.7627 66.624 83.0827 68.64 81.888C70.7307 80.6187 73.008 79.7227 75.472 79.2C78.0107 78.6773 80.4373 78.304 82.752 78.08L89.36 77.52C92.4213 77.296 94.8107 76.96 96.528 76.512C98.32 75.9893 99.664 75.3173 100.56 74.496C101.456 73.6 102.016 72.48 102.24 71.136C102.464 69.792 102.576 68.112 102.576 66.096C102.576 64.528 102.277 63.072 101.68 61.728C101.083 60.384 100.149 59.1893 98.88 58.144C97.6107 57.0987 95.968 56.2773 93.952 55.68C91.936 55.0827 89.472 54.784 86.56 54.784C81.408 54.784 77.2267 56.0533 74.016 58.592C70.88 61.1307 69.1627 64.976 68.864 70.128H64.608C64.9067 63.7813 66.9227 59.04 70.656 55.904C74.464 52.6933 79.84 51.088 86.784 51.088C93.728 51.088 98.768 52.4693 101.904 55.232C105.115 57.92 106.72 61.4667 106.72 65.872V99.36C106.72 100.181 106.72 101.003 106.72 101.824C106.795 102.645 106.944 103.392 107.168 104.064C107.392 104.736 107.765 105.296 108.288 105.744C108.811 106.117 109.557 106.304 110.528 106.304C111.275 106.304 112.32 106.192 113.664 105.968V109.552C112.544 109.851 111.387 110 110.192 110C108.475 110 107.093 109.776 106.048 109.328C105.077 108.88 104.331 108.283 103.808 107.536C103.285 106.789 102.912 105.931 102.688 104.96C102.539 103.915 102.464 102.795 102.464 101.6V98.576ZM102.464 77.296C101.419 78.5653 99.8133 79.424 97.648 79.872C95.5573 80.32 93.2053 80.656 90.592 80.88L83.424 81.552C81.3333 81.776 79.2427 82.112 77.152 82.56C75.0613 82.9333 73.1573 83.6053 71.44 84.576C69.7973 85.5467 68.4533 86.8907 67.408 88.608C66.3627 90.2507 65.84 92.416 65.84 95.104C65.84 99.36 67.184 102.533 69.872 104.624C72.56 106.64 76.256 107.648 80.96 107.648C85.8133 107.648 89.6587 106.789 92.496 105.072C95.3333 103.28 97.4987 101.264 98.992 99.024C100.485 96.7093 101.419 94.5067 101.792 92.416C102.24 90.2507 102.464 88.7947 102.464 88.048V77.296Z" />
<path d="M121.663 30.032H125.919V64.64H126.143C126.964 62.4 128.121 60.4587 129.615 58.816C131.108 57.0987 132.825 55.68 134.767 54.56C136.708 53.3653 138.799 52.5067 141.039 51.984C143.279 51.3867 145.593 51.088 147.983 51.088C152.239 51.088 155.897 51.8347 158.959 53.328C162.095 54.8213 164.708 56.8747 166.799 59.488C168.889 62.1013 170.42 65.1627 171.391 68.672C172.436 72.1067 172.959 75.84 172.959 79.872C172.959 86.7413 172.025 92.2667 170.159 96.448C168.292 100.555 166.052 103.728 163.439 105.968C160.825 108.133 158.1 109.552 155.263 110.224C152.425 110.971 149.999 111.344 147.983 111.344C144.175 111.344 140.927 110.747 138.239 109.552C135.625 108.357 133.46 106.976 131.743 105.408C130.025 103.765 128.719 102.16 127.823 100.592C126.927 99.024 126.367 97.8667 126.143 97.12H125.919V110H121.663V30.032ZM147.983 107.648C151.791 107.648 155.001 106.827 157.615 105.184C160.228 103.541 162.356 101.413 163.999 98.8C165.641 96.112 166.836 93.1253 167.583 89.84C168.329 86.48 168.703 83.1573 168.703 79.872C168.703 76.6613 168.255 73.5627 167.359 70.576C166.537 67.5893 165.231 64.9387 163.439 62.624C161.721 60.2347 159.556 58.3307 156.943 56.912C154.404 55.4933 151.417 54.784 147.983 54.784C144.249 54.784 141.001 55.4187 138.239 56.688C135.476 57.9573 133.199 59.712 131.407 61.952C129.615 64.192 128.271 66.8427 127.375 69.904C126.479 72.9653 126.031 76.288 126.031 79.872C126.031 83.3813 126.441 86.816 127.263 90.176C128.084 93.536 129.353 96.5227 131.071 99.136C132.863 101.675 135.14 103.728 137.903 105.296C140.665 106.864 144.025 107.648 147.983 107.648Z" />
<path d="M184.374 41.568V30.032H188.63V41.568H184.374ZM184.374 110V52.432H188.63V110H184.374Z" />
<path d="M240.464 98.576H240.24C239.568 100.293 238.597 101.936 237.328 103.504C236.059 104.997 234.491 106.341 232.624 107.536C230.832 108.731 228.779 109.664 226.464 110.336C224.149 111.008 221.611 111.344 218.848 111.344C212.725 111.344 207.984 110.037 204.624 107.424C201.264 104.736 199.584 100.629 199.584 95.104C199.584 91.744 200.256 89.0187 201.6 86.928C202.944 84.7627 204.624 83.0827 206.64 81.888C208.731 80.6187 211.008 79.7227 213.472 79.2C216.011 78.6773 218.437 78.304 220.752 78.08L227.36 77.52C230.421 77.296 232.811 76.96 234.528 76.512C236.32 75.9893 237.664 75.3173 238.56 74.496C239.456 73.6 240.016 72.48 240.24 71.136C240.464 69.792 240.576 68.112 240.576 66.096C240.576 64.528 240.277 63.072 239.68 61.728C239.083 60.384 238.149 59.1893 236.88 58.144C235.611 57.0987 233.968 56.2773 231.952 55.68C229.936 55.0827 227.472 54.784 224.56 54.784C219.408 54.784 215.227 56.0533 212.016 58.592C208.88 61.1307 207.163 64.976 206.864 70.128H202.608C202.907 63.7813 204.923 59.04 208.656 55.904C212.464 52.6933 217.84 51.088 224.784 51.088C231.728 51.088 236.768 52.4693 239.904 55.232C243.115 57.92 244.72 61.4667 244.72 65.872V99.36C244.72 100.181 244.72 101.003 244.72 101.824C244.795 102.645 244.944 103.392 245.168 104.064C245.392 104.736 245.765 105.296 246.288 105.744C246.811 106.117 247.557 106.304 248.528 106.304C249.275 106.304 250.32 106.192 251.664 105.968V109.552C250.544 109.851 249.387 110 248.192 110C246.475 110 245.093 109.776 244.048 109.328C243.077 108.88 242.331 108.283 241.808 107.536C241.285 106.789 240.912 105.931 240.688 104.96C240.539 103.915 240.464 102.795 240.464 101.6V98.576ZM240.464 77.296C239.419 78.5653 237.813 79.424 235.648 79.872C233.557 80.32 231.205 80.656 228.592 80.88L221.424 81.552C219.333 81.776 217.243 82.112 215.152 82.56C213.061 82.9333 211.157 83.6053 209.44 84.576C207.797 85.5467 206.453 86.8907 205.408 88.608C204.363 90.2507 203.84 92.416 203.84 95.104C203.84 99.36 205.184 102.533 207.872 104.624C210.56 106.64 214.256 107.648 218.96 107.648C223.813 107.648 227.659 106.789 230.496 105.072C233.333 103.28 235.499 101.264 236.992 99.024C238.485 96.7093 239.419 94.5067 239.792 92.416C240.24 90.2507 240.464 88.7947 240.464 88.048V77.296Z" />
<path d="M258.733 52.432H262.989V64.752H263.213C263.96 62.5867 265.005 60.6827 266.349 59.04C267.768 57.3227 269.373 55.8667 271.165 54.672C273.032 53.4773 275.048 52.5813 277.213 51.984C279.378 51.3867 281.581 51.088 283.821 51.088C287.181 51.088 290.018 51.4987 292.333 52.32C294.722 53.1413 296.664 54.224 298.157 55.568C299.65 56.912 300.808 58.4427 301.629 60.16C302.525 61.8027 303.16 63.4827 303.533 65.2C303.906 66.9173 304.13 68.5973 304.205 70.24C304.28 71.808 304.317 73.1893 304.317 74.384V110H300.061V73.6C300.061 72.1813 299.949 70.3893 299.725 68.224C299.501 66.0587 298.829 64.0053 297.709 62.064C296.664 60.048 295.021 58.3307 292.781 56.912C290.616 55.4933 287.592 54.784 283.709 54.784C280.424 54.784 277.512 55.3813 274.973 56.576C272.434 57.7707 270.269 59.4507 268.477 61.616C266.685 63.7067 265.304 66.2453 264.333 69.232C263.437 72.144 262.989 75.3547 262.989 78.864V110H258.733V52.432Z" />
<path d="M350.54 30.032H355.468V110H350.54V30.032Z" />
<path d="M371.327 90.848C371.476 93.536 372.074 95.9253 373.119 98.016C374.164 100.032 375.508 101.787 377.151 103.28C378.868 104.699 380.847 105.781 383.087 106.528C385.327 107.275 387.754 107.648 390.367 107.648C392.234 107.648 394.212 107.499 396.303 107.2C398.468 106.827 400.447 106.192 402.239 105.296C404.106 104.4 405.636 103.168 406.831 101.6C408.026 99.9573 408.623 97.904 408.623 95.44C408.623 92.2293 407.652 89.8027 405.711 88.16C403.77 86.5173 401.306 85.248 398.319 84.352C395.407 83.456 392.234 82.7467 388.799 82.224C385.439 81.6267 382.266 80.768 379.279 79.648C376.367 78.528 373.94 76.96 371.999 74.944C370.058 72.8533 369.087 69.8293 369.087 65.872C369.087 63.0347 369.722 60.6827 370.991 58.816C372.26 56.8747 373.866 55.344 375.807 54.224C377.823 53.104 380.063 52.32 382.527 51.872C384.991 51.3493 387.455 51.088 389.919 51.088C392.906 51.088 395.706 51.424 398.319 52.096C400.932 52.768 403.172 53.8507 405.039 55.344C406.98 56.8373 408.474 58.7413 409.519 61.056C410.639 63.3707 411.199 66.1707 411.199 69.456H406.943C406.943 66.8427 406.495 64.6027 405.599 62.736C404.778 60.8693 403.583 59.376 402.015 58.256C400.522 57.0613 398.73 56.2027 396.639 55.68C394.548 55.0827 392.308 54.784 389.919 54.784C387.978 54.784 385.999 54.9707 383.983 55.344C382.042 55.7173 380.287 56.352 378.719 57.248C377.151 58.144 375.844 59.3013 374.799 60.72C373.828 62.1387 373.343 63.856 373.343 65.872C373.343 68.1867 373.903 70.0533 375.023 71.472C376.143 72.8907 377.599 74.048 379.391 74.944C381.258 75.7653 383.311 76.4373 385.551 76.96C387.866 77.4827 390.18 78.0053 392.495 78.528C395.332 79.0507 397.983 79.6853 400.447 80.432C402.986 81.104 405.151 82.0747 406.943 83.344C408.81 84.5387 410.266 86.1067 411.311 88.048C412.356 89.9893 412.879 92.4533 412.879 95.44C412.879 98.576 412.17 101.152 410.751 103.168C409.332 105.184 407.54 106.827 405.375 108.096C403.21 109.291 400.783 110.112 398.095 110.56C395.482 111.083 392.906 111.344 390.367 111.344C387.082 111.344 384.02 110.896 381.183 110C378.42 109.179 375.994 107.909 373.903 106.192C371.812 104.4 370.17 102.235 368.975 99.696C367.78 97.1573 367.146 94.208 367.071 90.848H371.327Z" />
<path d="M461.464 98.576H461.24C460.568 100.293 459.597 101.936 458.328 103.504C457.059 104.997 455.491 106.341 453.624 107.536C451.832 108.731 449.779 109.664 447.464 110.336C445.149 111.008 442.611 111.344 439.848 111.344C433.725 111.344 428.984 110.037 425.624 107.424C422.264 104.736 420.584 100.629 420.584 95.104C420.584 91.744 421.256 89.0187 422.6 86.928C423.944 84.7627 425.624 83.0827 427.64 81.888C429.731 80.6187 432.008 79.7227 434.472 79.2C437.011 78.6773 439.437 78.304 441.752 78.08L448.36 77.52C451.421 77.296 453.811 76.96 455.528 76.512C457.32 75.9893 458.664 75.3173 459.56 74.496C460.456 73.6 461.016 72.48 461.24 71.136C461.464 69.792 461.576 68.112 461.576 66.096C461.576 64.528 461.277 63.072 460.68 61.728C460.083 60.384 459.149 59.1893 457.88 58.144C456.611 57.0987 454.968 56.2773 452.952 55.68C450.936 55.0827 448.472 54.784 445.56 54.784C440.408 54.784 436.227 56.0533 433.016 58.592C429.88 61.1307 428.163 64.976 427.864 70.128H423.608C423.907 63.7813 425.923 59.04 429.656 55.904C433.464 52.6933 438.84 51.088 445.784 51.088C452.728 51.088 457.768 52.4693 460.904 55.232C464.115 57.92 465.72 61.4667 465.72 65.872V99.36C465.72 100.181 465.72 101.003 465.72 101.824C465.795 102.645 465.944 103.392 466.168 104.064C466.392 104.736 466.765 105.296 467.288 105.744C467.811 106.117 468.557 106.304 469.528 106.304C470.275 106.304 471.32 106.192 472.664 105.968V109.552C471.544 109.851 470.387 110 469.192 110C467.475 110 466.093 109.776 465.048 109.328C464.077 108.88 463.331 108.283 462.808 107.536C462.285 106.789 461.912 105.931 461.688 104.96C461.539 103.915 461.464 102.795 461.464 101.6V98.576ZM461.464 77.296C460.419 78.5653 458.813 79.424 456.648 79.872C454.557 80.32 452.205 80.656 449.592 80.88L442.424 81.552C440.333 81.776 438.243 82.112 436.152 82.56C434.061 82.9333 432.157 83.6053 430.44 84.576C428.797 85.5467 427.453 86.8907 426.408 88.608C425.363 90.2507 424.84 92.416 424.84 95.104C424.84 99.36 426.184 102.533 428.872 104.624C431.56 106.64 435.256 107.648 439.96 107.648C444.813 107.648 448.659 106.789 451.496 105.072C454.333 103.28 456.499 101.264 457.992 99.024C459.485 96.7093 460.419 94.5067 460.792 92.416C461.24 90.2507 461.464 88.7947 461.464 88.048V77.296Z" />
<path d="M479.574 30.032H483.83V83.008L519.334 52.432H525.494L500.294 73.936L527.286 110H521.462L496.934 77.184L483.83 88.272V110H479.574V30.032Z" />
<path d="M587.327 90.848C587.476 93.536 588.074 95.9253 589.119 98.016C590.164 100.032 591.508 101.787 593.151 103.28C594.868 104.699 596.847 105.781 599.087 106.528C601.327 107.275 603.754 107.648 606.367 107.648C608.234 107.648 610.212 107.499 612.303 107.2C614.468 106.827 616.447 106.192 618.239 105.296C620.106 104.4 621.636 103.168 622.831 101.6C624.026 99.9573 624.623 97.904 624.623 95.44C624.623 92.2293 623.652 89.8027 621.711 88.16C619.77 86.5173 617.306 85.248 614.319 84.352C611.407 83.456 608.234 82.7467 604.799 82.224C601.439 81.6267 598.266 80.768 595.279 79.648C592.367 78.528 589.94 76.96 587.999 74.944C586.058 72.8533 585.087 69.8293 585.087 65.872C585.087 63.0347 585.722 60.6827 586.991 58.816C588.26 56.8747 589.866 55.344 591.807 54.224C593.823 53.104 596.063 52.32 598.527 51.872C600.991 51.3493 603.455 51.088 605.919 51.088C608.906 51.088 611.706 51.424 614.319 52.096C616.932 52.768 619.172 53.8507 621.039 55.344C622.98 56.8373 624.474 58.7413 625.519 61.056C626.639 63.3707 627.199 66.1707 627.199 69.456H622.943C622.943 66.8427 622.495 64.6027 621.599 62.736C620.778 60.8693 619.583 59.376 618.015 58.256C616.522 57.0613 614.73 56.2027 612.639 55.68C610.548 55.0827 608.308 54.784 605.919 54.784C603.978 54.784 601.999 54.9707 599.983 55.344C598.042 55.7173 596.287 56.352 594.719 57.248C593.151 58.144 591.844 59.3013 590.799 60.72C589.828 62.1387 589.343 63.856 589.343 65.872C589.343 68.1867 589.903 70.0533 591.023 71.472C592.143 72.8907 593.599 74.048 595.391 74.944C597.258 75.7653 599.311 76.4373 601.551 76.96C603.866 77.4827 606.18 78.0053 608.495 78.528C611.332 79.0507 613.983 79.6853 616.447 80.432C618.986 81.104 621.151 82.0747 622.943 83.344C624.81 84.5387 626.266 86.1067 627.311 88.048C628.356 89.9893 628.879 92.4533 628.879 95.44C628.879 98.576 628.17 101.152 626.751 103.168C625.332 105.184 623.54 106.827 621.375 108.096C619.21 109.291 616.783 110.112 614.095 110.56C611.482 111.083 608.906 111.344 606.367 111.344C603.082 111.344 600.02 110.896 597.183 110C594.42 109.179 591.994 107.909 589.903 106.192C587.812 104.4 586.17 102.235 584.975 99.696C583.78 97.1573 583.146 94.208 583.071 90.848H587.327Z" />
<path d="M533.327 90.848C533.476 93.536 534.074 95.9253 535.119 98.016C536.164 100.032 537.508 101.787 539.151 103.28C540.868 104.699 542.847 105.781 545.087 106.528C547.327 107.275 549.754 107.648 552.367 107.648C554.234 107.648 556.212 107.499 558.303 107.2C560.468 106.827 562.447 106.192 564.239 105.296C566.106 104.4 567.636 103.168 568.831 101.6C570.026 99.9573 570.623 97.904 570.623 95.44C570.623 92.2293 569.652 89.8027 567.711 88.16C565.77 86.5173 563.306 85.248 560.319 84.352C557.407 83.456 554.234 82.7467 550.799 82.224C547.439 81.6267 544.266 80.768 541.279 79.648C538.367 78.528 535.94 76.96 533.999 74.944C532.058 72.8533 531.087 69.8293 531.087 65.872C531.087 63.0347 531.722 60.6827 532.991 58.816C534.26 56.8747 535.866 55.344 537.807 54.224C539.823 53.104 542.063 52.32 544.527 51.872C546.991 51.3493 549.455 51.088 551.919 51.088C554.906 51.088 557.706 51.424 560.319 52.096C562.932 52.768 565.172 53.8507 567.039 55.344C568.98 56.8373 570.474 58.7413 571.519 61.056C572.639 63.3707 573.199 66.1707 573.199 69.456H568.943C568.943 66.8427 568.495 64.6027 567.599 62.736C566.778 60.8693 565.583 59.376 564.015 58.256C562.522 57.0613 560.73 56.2027 558.639 55.68C556.548 55.0827 554.308 54.784 551.919 54.784C549.978 54.784 547.999 54.9707 545.983 55.344C544.042 55.7173 542.287 56.352 540.719 57.248C539.151 58.144 537.844 59.3013 536.799 60.72C535.828 62.1387 535.343 63.856 535.343 65.872C535.343 68.1867 535.903 70.0533 537.023 71.472C538.143 72.8907 539.599 74.048 541.391 74.944C543.258 75.7653 545.311 76.4373 547.551 76.96C549.866 77.4827 552.18 78.0053 554.495 78.528C557.332 79.0507 559.983 79.6853 562.447 80.432C564.986 81.104 567.151 82.0747 568.943 83.344C570.81 84.5387 572.266 86.1067 573.311 88.048C574.356 89.9893 574.879 92.4533 574.879 95.44C574.879 98.576 574.17 101.152 572.751 103.168C571.332 105.184 569.54 106.827 567.375 108.096C565.21 109.291 562.783 110.112 560.095 110.56C557.482 111.083 554.906 111.344 552.367 111.344C549.082 111.344 546.02 110.896 543.183 110C540.42 109.179 537.994 107.909 535.903 106.192C533.812 104.4 532.17 102.235 530.975 99.696C529.78 97.1573 529.146 94.208 529.071 90.848H533.327Z" />
<path d="M637.006 81.216C637.006 77.1093 637.566 73.264 638.686 69.68C639.881 66.0213 641.598 62.8107 643.838 60.048C646.078 57.2853 648.841 55.12 652.126 53.552C655.411 51.9093 659.182 51.088 663.438 51.088C667.694 51.088 671.465 51.9093 674.75 53.552C678.035 55.12 680.798 57.2853 683.038 60.048C685.278 62.8107 686.958 66.0213 688.078 69.68C689.273 73.264 689.87 77.1093 689.87 81.216C689.87 85.3227 689.273 89.2053 688.078 92.864C686.958 96.5227 685.278 99.7333 683.038 102.496C680.798 105.184 678.035 107.349 674.75 108.992C671.465 110.56 667.694 111.344 663.438 111.344C659.182 111.344 655.411 110.56 652.126 108.992C648.841 107.349 646.078 105.184 643.838 102.496C641.598 99.7333 639.881 96.5227 638.686 92.864C637.566 89.2053 637.006 85.3227 637.006 81.216ZM641.262 81.216C641.262 84.6507 641.747 87.9733 642.718 91.184C643.689 94.32 645.107 97.12 646.974 99.584C648.841 102.048 651.155 104.027 653.918 105.52C656.681 106.939 659.854 107.648 663.438 107.648C667.022 107.648 670.195 106.939 672.958 105.52C675.721 104.027 678.035 102.048 679.902 99.584C681.769 97.12 683.187 94.32 684.158 91.184C685.129 87.9733 685.614 84.6507 685.614 81.216C685.614 77.7813 685.129 74.496 684.158 71.36C683.187 68.1493 681.769 65.312 679.902 62.848C678.035 60.384 675.721 58.4427 672.958 57.024C670.195 55.5307 667.022 54.784 663.438 54.784C659.854 54.784 656.681 55.5307 653.918 57.024C651.155 58.4427 648.841 60.384 646.974 62.848C645.107 65.312 643.689 68.1493 642.718 71.36C641.747 74.496 641.262 77.7813 641.262 81.216Z" />
<path d="M700.733 52.432H704.989V64.752H705.213C705.96 62.5867 707.005 60.6827 708.349 59.04C709.768 57.3227 711.373 55.8667 713.165 54.672C715.032 53.4773 717.048 52.5813 719.213 51.984C721.378 51.3867 723.581 51.088 725.821 51.088C729.181 51.088 732.018 51.4987 734.333 52.32C736.722 53.1413 738.664 54.224 740.157 55.568C741.65 56.912 742.808 58.4427 743.629 60.16C744.525 61.8027 745.16 63.4827 745.533 65.2C745.906 66.9173 746.13 68.5973 746.205 70.24C746.28 71.808 746.317 73.1893 746.317 74.384V110H742.061V73.6C742.061 72.1813 741.949 70.3893 741.725 68.224C741.501 66.0587 740.829 64.0053 739.709 62.064C738.664 60.048 737.021 58.3307 734.781 56.912C732.616 55.4933 729.592 54.784 725.709 54.784C722.424 54.784 719.512 55.3813 716.973 56.576C714.434 57.7707 712.269 59.4507 710.477 61.616C708.685 63.7067 707.304 66.2453 706.333 69.232C705.437 72.144 704.989 75.3547 704.989 78.864V110H700.733V52.432Z" />
</svg>
